<mxfile host="app.diagrams.net" modified="2023-06-23T20:36:05.688Z" agent="Mozilla/5.0 (Windows NT 10.0; Win64; x64) AppleWebKit/537.36 (KHTML, like Gecko) Chrome/114.0.0.0 Safari/537.36" etag="zAwV7qG7e-oKQFSKyapX" version="21.5.0" type="github" pages="2">
  <diagram name="Page-1" id="DfDPtNIrz9cjAZ-rulav">
    <mxGraphModel dx="794" dy="430" grid="1" gridSize="10" guides="1" tooltips="1" connect="1" arrows="1" fold="1" page="1" pageScale="1" pageWidth="850" pageHeight="1100" math="0" shadow="0">
      <root>
        <mxCell id="0" />
        <mxCell id="1" parent="0" />
        <mxCell id="zjQrNYjpZXaSK-8Uwvzj-1" value="Customer" style="whiteSpace=wrap;html=1;align=center;" parent="1" vertex="1">
          <mxGeometry x="160" y="150" width="100" height="40" as="geometry" />
        </mxCell>
        <mxCell id="zjQrNYjpZXaSK-8Uwvzj-2" value="Item" style="whiteSpace=wrap;html=1;align=center;" parent="1" vertex="1">
          <mxGeometry x="490" y="150" width="100" height="40" as="geometry" />
        </mxCell>
        <mxCell id="zjQrNYjpZXaSK-8Uwvzj-7" value="" style="endArrow=none;html=1;rounded=0;exitX=1;exitY=0.5;exitDx=0;exitDy=0;entryX=0;entryY=0.5;entryDx=0;entryDy=0;" parent="1" source="zjQrNYjpZXaSK-8Uwvzj-6" target="zjQrNYjpZXaSK-8Uwvzj-2" edge="1">
          <mxGeometry relative="1" as="geometry">
            <mxPoint x="340" y="280" as="sourcePoint" />
            <mxPoint x="500" y="280" as="targetPoint" />
          </mxGeometry>
        </mxCell>
        <mxCell id="zjQrNYjpZXaSK-8Uwvzj-9" value="" style="endArrow=none;html=1;rounded=0;exitX=1;exitY=0.5;exitDx=0;exitDy=0;entryX=0;entryY=0.5;entryDx=0;entryDy=0;" parent="1" source="zjQrNYjpZXaSK-8Uwvzj-1" target="zjQrNYjpZXaSK-8Uwvzj-6" edge="1">
          <mxGeometry relative="1" as="geometry">
            <mxPoint x="260" y="170" as="sourcePoint" />
            <mxPoint x="490" y="170" as="targetPoint" />
          </mxGeometry>
        </mxCell>
        <mxCell id="zjQrNYjpZXaSK-8Uwvzj-6" value="Buys" style="shape=rhombus;perimeter=rhombusPerimeter;whiteSpace=wrap;html=1;align=center;" parent="1" vertex="1">
          <mxGeometry x="305" y="140" width="120" height="60" as="geometry" />
        </mxCell>
        <mxCell id="zjQrNYjpZXaSK-8Uwvzj-10" value="Name" style="ellipse;whiteSpace=wrap;html=1;align=center;" parent="1" vertex="1">
          <mxGeometry x="205" y="70" width="100" height="40" as="geometry" />
        </mxCell>
        <mxCell id="zjQrNYjpZXaSK-8Uwvzj-11" value="M" style="text;html=1;align=center;verticalAlign=middle;resizable=0;points=[];autosize=1;strokeColor=none;fillColor=none;" parent="1" vertex="1">
          <mxGeometry x="265" y="138" width="30" height="30" as="geometry" />
        </mxCell>
        <mxCell id="zjQrNYjpZXaSK-8Uwvzj-12" value="N" style="text;html=1;align=center;verticalAlign=middle;resizable=0;points=[];autosize=1;strokeColor=none;fillColor=none;" parent="1" vertex="1">
          <mxGeometry x="455" y="138" width="30" height="30" as="geometry" />
        </mxCell>
        <mxCell id="zjQrNYjpZXaSK-8Uwvzj-13" value="" style="endArrow=none;html=1;rounded=0;exitX=0.58;exitY=0.075;exitDx=0;exitDy=0;exitPerimeter=0;entryX=0.346;entryY=1.055;entryDx=0;entryDy=0;entryPerimeter=0;" parent="1" source="zjQrNYjpZXaSK-8Uwvzj-1" target="zjQrNYjpZXaSK-8Uwvzj-10" edge="1">
          <mxGeometry relative="1" as="geometry">
            <mxPoint x="340" y="280" as="sourcePoint" />
            <mxPoint x="500" y="280" as="targetPoint" />
          </mxGeometry>
        </mxCell>
        <mxCell id="RYMFUKdeX9WCHEnV1jmH-1" value="CustID" style="ellipse;whiteSpace=wrap;html=1;align=center;fontStyle=4;" vertex="1" parent="1">
          <mxGeometry x="80" y="70" width="100" height="40" as="geometry" />
        </mxCell>
        <mxCell id="RYMFUKdeX9WCHEnV1jmH-2" value="" style="endArrow=none;html=1;rounded=0;exitX=0.693;exitY=1.033;exitDx=0;exitDy=0;exitPerimeter=0;entryX=0.587;entryY=0.083;entryDx=0;entryDy=0;entryPerimeter=0;" edge="1" parent="1" source="RYMFUKdeX9WCHEnV1jmH-1" target="zjQrNYjpZXaSK-8Uwvzj-1">
          <mxGeometry relative="1" as="geometry">
            <mxPoint x="330" y="230" as="sourcePoint" />
            <mxPoint x="490" y="230" as="targetPoint" />
          </mxGeometry>
        </mxCell>
        <mxCell id="RYMFUKdeX9WCHEnV1jmH-3" value="Name" style="ellipse;whiteSpace=wrap;html=1;align=center;" vertex="1" parent="1">
          <mxGeometry x="410" y="70" width="100" height="40" as="geometry" />
        </mxCell>
        <mxCell id="RYMFUKdeX9WCHEnV1jmH-4" value="" style="endArrow=none;html=1;rounded=0;exitX=0.25;exitY=0;exitDx=0;exitDy=0;entryX=0.5;entryY=1;entryDx=0;entryDy=0;" edge="1" parent="1" source="zjQrNYjpZXaSK-8Uwvzj-2" target="RYMFUKdeX9WCHEnV1jmH-3">
          <mxGeometry relative="1" as="geometry">
            <mxPoint x="228" y="163" as="sourcePoint" />
            <mxPoint x="250" y="122" as="targetPoint" />
          </mxGeometry>
        </mxCell>
        <mxCell id="RYMFUKdeX9WCHEnV1jmH-5" value="ItemID" style="ellipse;whiteSpace=wrap;html=1;align=center;fontStyle=4;" vertex="1" parent="1">
          <mxGeometry x="530" y="60" width="100" height="40" as="geometry" />
        </mxCell>
        <mxCell id="RYMFUKdeX9WCHEnV1jmH-6" value="" style="endArrow=none;html=1;rounded=0;exitX=0.5;exitY=0;exitDx=0;exitDy=0;entryX=0.34;entryY=1.017;entryDx=0;entryDy=0;entryPerimeter=0;" edge="1" parent="1" source="zjQrNYjpZXaSK-8Uwvzj-2" target="RYMFUKdeX9WCHEnV1jmH-5">
          <mxGeometry relative="1" as="geometry">
            <mxPoint x="228" y="163" as="sourcePoint" />
            <mxPoint x="250" y="122" as="targetPoint" />
          </mxGeometry>
        </mxCell>
        <mxCell id="RYMFUKdeX9WCHEnV1jmH-7" value="Name" style="ellipse;whiteSpace=wrap;html=1;align=center;" vertex="1" parent="1">
          <mxGeometry x="610" y="98" width="100" height="40" as="geometry" />
        </mxCell>
        <mxCell id="RYMFUKdeX9WCHEnV1jmH-8" value="" style="endArrow=none;html=1;rounded=0;exitX=1;exitY=0.25;exitDx=0;exitDy=0;entryX=0;entryY=1;entryDx=0;entryDy=0;" edge="1" parent="1" source="zjQrNYjpZXaSK-8Uwvzj-2" target="RYMFUKdeX9WCHEnV1jmH-7">
          <mxGeometry relative="1" as="geometry">
            <mxPoint x="550" y="160" as="sourcePoint" />
            <mxPoint x="574" y="111" as="targetPoint" />
          </mxGeometry>
        </mxCell>
      </root>
    </mxGraphModel>
  </diagram>
  <diagram id="J3aphZZWNtgsIai87BWT" name="Page-2">
    <mxGraphModel dx="794" dy="430" grid="1" gridSize="10" guides="1" tooltips="1" connect="1" arrows="1" fold="1" page="1" pageScale="1" pageWidth="850" pageHeight="1100" math="0" shadow="0">
      <root>
        <mxCell id="0" />
        <mxCell id="1" parent="0" />
        <mxCell id="3gM_kKH9YofZiavRZTrO-1" value="Customer" style="swimlane;fontStyle=0;childLayout=stackLayout;horizontal=1;startSize=26;horizontalStack=0;resizeParent=1;resizeParentMax=0;resizeLast=0;collapsible=1;marginBottom=0;align=center;fontSize=14;" parent="1" vertex="1">
          <mxGeometry x="340" y="200" width="160" height="116" as="geometry" />
        </mxCell>
        <mxCell id="fYj2SyzGPrZHFojs8xrY-1" value="CustID" style="text;strokeColor=none;fillColor=none;spacingLeft=4;spacingRight=4;overflow=hidden;rotatable=0;points=[[0,0.5],[1,0.5]];portConstraint=eastwest;fontSize=12;whiteSpace=wrap;html=1;" vertex="1" parent="3gM_kKH9YofZiavRZTrO-1">
          <mxGeometry y="26" width="160" height="30" as="geometry" />
        </mxCell>
        <mxCell id="3gM_kKH9YofZiavRZTrO-2" value="Name" style="text;strokeColor=none;fillColor=none;spacingLeft=4;spacingRight=4;overflow=hidden;rotatable=0;points=[[0,0.5],[1,0.5]];portConstraint=eastwest;fontSize=12;whiteSpace=wrap;html=1;" parent="3gM_kKH9YofZiavRZTrO-1" vertex="1">
          <mxGeometry y="56" width="160" height="30" as="geometry" />
        </mxCell>
        <mxCell id="3gM_kKH9YofZiavRZTrO-10" value="Address" style="text;strokeColor=none;fillColor=none;spacingLeft=4;spacingRight=4;overflow=hidden;rotatable=0;points=[[0,0.5],[1,0.5]];portConstraint=eastwest;fontSize=12;whiteSpace=wrap;html=1;" parent="3gM_kKH9YofZiavRZTrO-1" vertex="1">
          <mxGeometry y="86" width="160" height="30" as="geometry" />
        </mxCell>
        <mxCell id="3gM_kKH9YofZiavRZTrO-5" value="Item" style="swimlane;fontStyle=0;childLayout=stackLayout;horizontal=1;startSize=26;horizontalStack=0;resizeParent=1;resizeParentMax=0;resizeLast=0;collapsible=1;marginBottom=0;align=center;fontSize=14;" parent="1" vertex="1">
          <mxGeometry x="640" y="200" width="160" height="116" as="geometry" />
        </mxCell>
        <mxCell id="fYj2SyzGPrZHFojs8xrY-2" value="ItemID" style="text;strokeColor=none;fillColor=none;spacingLeft=4;spacingRight=4;overflow=hidden;rotatable=0;points=[[0,0.5],[1,0.5]];portConstraint=eastwest;fontSize=12;whiteSpace=wrap;html=1;" vertex="1" parent="3gM_kKH9YofZiavRZTrO-5">
          <mxGeometry y="26" width="160" height="30" as="geometry" />
        </mxCell>
        <mxCell id="3gM_kKH9YofZiavRZTrO-6" value="Name" style="text;strokeColor=none;fillColor=none;spacingLeft=4;spacingRight=4;overflow=hidden;rotatable=0;points=[[0,0.5],[1,0.5]];portConstraint=eastwest;fontSize=12;whiteSpace=wrap;html=1;" parent="3gM_kKH9YofZiavRZTrO-5" vertex="1">
          <mxGeometry y="56" width="160" height="30" as="geometry" />
        </mxCell>
        <mxCell id="3gM_kKH9YofZiavRZTrO-7" value="Price" style="text;strokeColor=none;fillColor=none;spacingLeft=4;spacingRight=4;overflow=hidden;rotatable=0;points=[[0,0.5],[1,0.5]];portConstraint=eastwest;fontSize=12;whiteSpace=wrap;html=1;" parent="3gM_kKH9YofZiavRZTrO-5" vertex="1">
          <mxGeometry y="86" width="160" height="30" as="geometry" />
        </mxCell>
        <mxCell id="3gM_kKH9YofZiavRZTrO-11" value="" style="edgeStyle=entityRelationEdgeStyle;fontSize=12;html=1;endArrow=ERoneToMany;startArrow=ERoneToMany;rounded=0;entryX=-0.017;entryY=0.02;entryDx=0;entryDy=0;entryPerimeter=0;exitX=1.017;exitY=-0.033;exitDx=0;exitDy=0;exitPerimeter=0;" parent="1" source="3gM_kKH9YofZiavRZTrO-10" target="3gM_kKH9YofZiavRZTrO-7" edge="1">
          <mxGeometry width="100" height="100" relative="1" as="geometry">
            <mxPoint x="370" y="300" as="sourcePoint" />
            <mxPoint x="470" y="200" as="targetPoint" />
          </mxGeometry>
        </mxCell>
      </root>
    </mxGraphModel>
  </diagram>
</mxfile>
